<svg width="54" height="36" viewBox="0 0 54 36" fill="none" xmlns="http://www.w3.org/2000/svg">
<path d="M7.38 29.42C6.14 29.42 5.03 29.14 4.05 28.58C3.07 28.02 2.3 27.25 1.74 26.27C1.18 25.29 0.9 24.18 0.9 22.94C0.9 21.72 1.18 20.63 1.74 19.67C2.3 18.69 3.07 17.92 4.05 17.36C5.03 16.8 6.14 16.52 7.38 16.52C8.62 16.52 9.72 16.79 10.68 17.33C11.64 17.85 12.4 18.57 12.96 19.49C13.52 20.41 13.8 21.47 13.8 22.67C13.8 23.89 13.54 24.85 13.02 25.55C12.52 26.23 11.83 26.57 10.95 26.57C10.45 26.57 10 26.48 9.6 26.3C9.22 26.1 8.93 25.84 8.73 25.52C8.51 25.68 8.27 25.82 8.01 25.94C7.77 26.04 7.52 26.09 7.26 26.09C6.38 26.09 5.64 25.79 5.04 25.19C4.44 24.57 4.14 23.82 4.14 22.94C4.14 22.06 4.44 21.33 5.04 20.75C5.64 20.17 6.38 19.88 7.26 19.88C7.5 19.88 7.72 19.92 7.92 20C8.12 20.08 8.3 20.17 8.46 20.27V19.94H9.09V24.56C9.09 24.94 9.27 25.26 9.63 25.52C9.99 25.78 10.41 25.91 10.89 25.91C11.63 25.91 12.18 25.63 12.54 25.07C12.92 24.51 13.11 23.71 13.11 22.67C13.11 21.57 12.87 20.62 12.39 19.82C11.91 19 11.24 18.36 10.38 17.9C9.52 17.44 8.52 17.21 7.38 17.21C6.28 17.21 5.29 17.46 4.41 17.96C3.53 18.46 2.84 19.14 2.34 20C1.84 20.86 1.59 21.84 1.59 22.94C1.59 24.04 1.84 25.03 2.34 25.91C2.84 26.77 3.53 27.46 4.41 27.98C5.29 28.48 6.28 28.73 7.38 28.73C8.54 28.73 9.58 28.44 10.5 27.86L10.83 28.46C10.33 28.76 9.79 28.99 9.21 29.15C8.63 29.33 8.02 29.42 7.38 29.42ZM7.38 27.98C6.44 27.98 5.58 27.76 4.8 27.32C4.04 26.88 3.44 26.28 3 25.52C2.56 24.74 2.34 23.88 2.34 22.94C2.34 22 2.56 21.16 3 20.42C3.44 19.66 4.04 19.06 4.8 18.62C5.56 18.18 6.42 17.96 7.38 17.96C8.34 17.96 9.19 18.17 9.93 18.59C10.69 18.99 11.29 19.55 11.73 20.27C12.17 20.99 12.39 21.8 12.39 22.7C12.39 23.5 12.27 24.15 12.03 24.65C11.79 25.13 11.4 25.37 10.86 25.37C10.02 25.37 9.6 24.91 9.6 23.99V19.94H10.23V23.99C10.23 24.45 10.44 24.68 10.86 24.68C11.2 24.68 11.42 24.51 11.52 24.17C11.62 23.81 11.67 23.32 11.67 22.7C11.67 21.5 11.28 20.53 10.5 19.79C9.72 19.03 8.68 18.65 7.38 18.65C6.56 18.65 5.82 18.84 5.16 19.22C4.5 19.58 3.98 20.09 3.6 20.75C3.24 21.39 3.06 22.12 3.06 22.94C3.06 23.76 3.25 24.5 3.63 25.16C4.01 25.8 4.52 26.31 5.16 26.69C5.82 27.05 6.56 27.23 7.38 27.23C8.22 27.23 9.01 27.01 9.75 26.57L10.08 27.2C9.18 27.72 8.28 27.98 7.38 27.98ZM7.2 24.83C6.68 24.83 6.23 24.65 5.85 24.29C5.49 23.91 5.31 23.46 5.31 22.94C5.31 22.44 5.49 22.01 5.85 21.65C6.23 21.27 6.68 21.08 7.2 21.08C7.46 21.08 7.69 21.13 7.89 21.23C8.11 21.33 8.3 21.45 8.46 21.59V20.9C8.3 20.8 8.11 20.72 7.89 20.66C7.69 20.58 7.48 20.54 7.26 20.54C6.56 20.54 5.97 20.77 5.49 21.23C5.03 21.67 4.8 22.24 4.8 22.94C4.8 23.62 5.03 24.2 5.49 24.68C5.97 25.16 6.56 25.4 7.26 25.4C7.74 25.4 8.16 25.29 8.52 25.07C8.48 24.91 8.46 24.74 8.46 24.56V24.32C8.12 24.66 7.7 24.83 7.2 24.83ZM5.97 22.94C5.97 23.3 6.08 23.6 6.3 23.84C6.52 24.06 6.82 24.17 7.2 24.17C7.76 24.17 8.18 24.01 8.46 23.69V22.37C8.14 21.95 7.72 21.74 7.2 21.74C6.84 21.74 6.54 21.86 6.3 22.1C6.08 22.32 5.97 22.6 5.97 22.94ZM20.167 29V4.88H21.067V29H20.167ZM16.207 29V4.88H17.107V29H16.207ZM18.187 29V4.88H19.087V29H18.187ZM39.577 29V4.88H40.477V29H39.577ZM35.617 29V4.88H36.517V29H35.617ZM37.597 29V4.88H38.497V29H37.597ZM29.467 15.08L28.927 14.27L34.537 6.14V7.73L29.467 15.08ZM30.667 20.27L22.147 8.09V6.56L31.237 19.49L30.667 20.27ZM30.697 16.82L30.157 16.01L34.537 9.77V11.33L30.697 16.82ZM29.467 22.04L22.147 11.6V10.01L30.007 21.23L29.467 22.04ZM31.897 18.53L31.357 17.75L34.537 13.22V14.78L31.897 18.53ZM28.267 23.75L22.147 15.05V13.46L28.807 22.97L28.267 23.75ZM47.6524 27.32C46.8524 27.32 46.1924 27.17 45.6724 26.87C45.1724 26.57 44.8924 26.18 44.8324 25.7L45.7324 25.58C45.7524 25.84 45.9324 26.05 46.2724 26.21C46.6124 26.35 47.0724 26.42 47.6524 26.42C48.9324 26.42 49.5724 26.14 49.5724 25.58C49.5724 25.34 49.4424 25.13 49.1824 24.95C48.9224 24.75 48.4524 24.55 47.7724 24.35L46.2424 23.9C45.3024 23.62 44.5124 23.2 43.8724 22.64C43.2524 22.08 42.9424 21.33 42.9424 20.39C42.9424 19.67 43.1424 19.03 43.5424 18.47C43.9624 17.91 44.5324 17.47 45.2524 17.15C45.9724 16.81 46.7724 16.64 47.6524 16.64C48.9324 16.64 50.0024 16.95 50.8624 17.57C51.7224 18.19 52.2124 18.99 52.3324 19.97L51.4324 20.06C51.3524 19.3 50.9624 18.69 50.2624 18.23C49.5824 17.77 48.7124 17.54 47.6524 17.54C46.5524 17.54 45.6424 17.81 44.9224 18.35C44.2024 18.89 43.8424 19.57 43.8424 20.39C43.8424 21.13 44.0824 21.7 44.5624 22.1C45.0424 22.5 45.7224 22.83 46.6024 23.09L48.2524 23.57C49.7324 24.01 50.4724 24.67 50.4724 25.55C50.4724 26.11 50.2124 26.55 49.6924 26.87C49.1924 27.17 48.5124 27.32 47.6524 27.32ZM47.6524 29.3C46.3324 29.3 45.2324 28.99 44.3524 28.37C43.4924 27.75 43.0024 26.95 42.8824 25.97L43.7824 25.85C43.8824 26.61 44.2824 27.23 44.9824 27.71C45.6824 28.17 46.5724 28.4 47.6524 28.4C48.8124 28.4 49.7524 28.14 50.4724 27.62C51.1924 27.08 51.5524 26.35 51.5524 25.43C51.5524 24.69 51.3224 24.09 50.8624 23.63C50.4024 23.17 49.7324 22.83 48.8524 22.61L47.0224 22.13C46.3424 21.95 45.8224 21.73 45.4624 21.47C45.1024 21.19 44.9224 20.83 44.9224 20.39C44.9224 19.85 45.1724 19.42 45.6724 19.1C46.1924 18.78 46.8524 18.62 47.6524 18.62C48.3924 18.62 49.0124 18.77 49.5124 19.07C50.0124 19.35 50.2924 19.72 50.3524 20.18L49.4824 20.3C49.3824 19.78 48.7724 19.52 47.6524 19.52C47.0924 19.52 46.6424 19.6 46.3024 19.76C45.9824 19.9 45.8224 20.11 45.8224 20.39C45.8224 20.57 45.9324 20.73 46.1524 20.87C46.3724 20.99 46.8524 21.16 47.5924 21.38L49.1824 21.83C50.2224 22.13 51.0224 22.57 51.5824 23.15C52.1624 23.73 52.4524 24.49 52.4524 25.43C52.4524 26.63 52.0024 27.58 51.1024 28.28C50.2224 28.96 49.0724 29.3 47.6524 29.3Z" fill="white"/>
</svg>
